<svg version="1.1" id="Слой_1" xmlns="http://www.w3.org/2000/svg" x="0" y="0" viewBox="0 0 211.35 211.35" style="enable-background:new 0 0 211.35 211.35" xml:space="preserve"><style>.st0{fill-rule:evenodd;clip-rule:evenodd}.st0,.st3{fill:#2b2a29}</style><path class="st0" d="M140.97 10.64C131 5.83 113.21 3.98 103.86 4.2c-38.26.89-73.12 22.54-89.95 58.12-21.9 46.32-5.64 102.17 37.8 129.32 13.52 8.45 23.38 11.86 39.62 7.52 39.56-10.57 51.83-62.34 19.24-89.24-11.55-9.53-19.04-11.52-26.53-28.19C73.35 57.92 83.26 29 106.8 16.08c8.88-4.88 19.21-6.89 29.41-5.96 1.61.14 3.33.58 4.76.52"/><path class="st0" d="M79.55 8.12C104.5 1.44 132 4.27 156.14 18.21s40.34 36.34 47.03 61.29c6.69 24.95 3.85 52.46-10.08 76.59-13.94 24.14-36.34 40.34-61.29 47.03s-52.46 3.85-76.59-10.08C31.07 179.1 14.86 156.7 8.17 131.75c-6.68-24.95-3.85-52.46 10.09-76.6C32.2 31.01 54.6 14.81 79.55 8.12m-1.24-4.6c26.13-7 54.93-4.04 80.21 10.56 25.28 14.6 42.25 38.06 49.25 64.19 7 26.13 4.04 54.93-10.56 80.21-14.6 25.28-38.06 42.25-64.19 49.25-26.13 7-54.93 4.04-80.21-10.56-25.28-14.6-42.25-38.06-49.25-64.19-7-26.13-4.04-54.93 10.56-80.21 14.6-25.28 38.06-42.25 64.19-49.25z"/><radialGradient id="SVGID_1_" cx="138.345" cy="108.233" r="138.801" fx="95.424" fy="110.347" gradientUnits="userSpaceOnUse"><stop offset="0" style="stop-color:#fff"/><stop offset="1" style="stop-color:#ddb964"/></radialGradient><path d="M203.17 79.5c-6.69-24.95-22.89-47.35-47.03-61.29-5.33-3.07-10.81-5.61-16.4-7.62-1.14-.11-2.36-.37-3.52-.48-10.2-.93-20.53 1.09-29.41 5.96-23.55 12.92-33.46 41.84-22.77 65.65 7.49 16.67 14.98 18.66 26.53 28.19 32.59 26.91 20.32 78.67-19.24 89.24-8.32 2.22-14.96 2.4-21.27.92 20.19 7.64 41.78 8.39 61.74 3.04 24.95-6.69 47.35-22.89 61.29-47.03 13.94-24.13 16.77-51.63 10.08-76.58z" style="fill-rule:evenodd;clip-rule:evenodd;fill:url(#SVGID_1_)"/><linearGradient id="SVGID_2_" gradientUnits="userSpaceOnUse" x1="66.835" y1="131.618" x2="66.835" y2="77.21"><stop offset="0" style="stop-color:#ddb964"/><stop offset=".508" style="stop-color:#fff"/><stop offset="1" style="stop-color:#ddb964"/></linearGradient><path d="M54.19 110.64c.09-3.35-.14-5.84-.7-7.47-.55-1.63-1.22-2.45-2.01-2.45-1.28-.04-2.06.85-2.34 2.66-.28 1.82-.38 4.24-.33 7.26h5.38zm49.15 5.2-3.06 7.81h1.53v2.97h-6.9v-2.97h1.53l5.37-11.25-4.71-11.38h-1.66V98.3h8.34v2.72h-1.96l2.84 6.96 2.75-6.96h-1.92V98.3h7.29v2.72h-1.83l-4.8 9.99 5.54 12.65h1.66v2.97h-8.38v-2.97h1.75l-3.38-7.82zm-27.67-14.12H75.47h.03-.31l-.01.01h-.01l-.01.01h-.01l-.01.01h-.05l-.01.01V99.1H75.32l.04-.01h.17l.04-.01h.05l.05-.01.04-.01h.05l.05-.01.05-.01.05-.01.05-.01.05-.01.05-.01.05-.01.05-.01.05-.01.05-.01.05-.01.05-.01.04.06.05-.01.05-.01.05-.01.05-.01.05-.01.05-.01.05-.01.05-.01.05-.01.05-.01.05-.01.05-.01.06-.01.05-.01.06-.01.06-.01.05-.01.06-.01.06-.01.06-.01.06-.01.06-.01.06-.01.06-.01.06-.01.06-.01.06-.01.06-.01.06-.04.06-.01.06-.01.06-.01.06-.01.06-.01.06-.02c.38-.08.7-.14.96-.18.26-.04.54-.08.83-.12.15-.04.29-.09.44-.15.15-.06.3-.09.46-.09H81.36l.01.01h.02l.01.01h.02l.01.01h.01l.01.01.01.01h.01l.01.01.01.01h.01l.01.01.01.01.01.01.01.01.01.01.01.01.01.01.01.01.01.01.01.01.01.01.01.01.01.01.01.01.01.01.01.01.01.01.01.01.01.01-.05 20.64c0 1.33.08 2.34.24 3.02l.01.03.01.03.01.03.01.03.01.03.01.03.01.03.01.03.01.03.01.03.01.03.01.03.02.03.02.03.02.03.02.03.02.03.02.03.02.03.02.03.02.03.02.02.02.03.02.02.02.03.02.02.02.02.02.02.02.02.02.02.02.02.02.02.03.02.03.02.02.02.03.02.03.02.03.02.03.02.03.02.03.02.03.02.03.02.03.02.03.02.03.02.03.02.03.02.03.02.04.02.03.02.04.02.04.02.04.02.04.01.04.01.04.01.04.02.04.01.04.01.04.01.04.01.04.01.04.02.04.01.04.01.04.01.04.01.04.01.04.01.04.01.09.01.04.01h.35l.05-.01.05-.01.05-.01.05-.01.05-.01.05-.01.05-.01.05-.01.05-.01.05-.01.05-.02.05-.01.05-.01.05-.01.05-.02.05-.02.1-.04.05-.02.05-.02.05-.02.05-.02.05-.03.05-.02.05-.03.05-.03.05-.03.05-.03.05-.03.05-.03.05-.03.05-.03.05-.03.05-.04.06-.04.05-.04.05-.04.06-.04.05-.04.05-.04.06-.04.06-.04.06-.05.06-.04.06-.05.06-.05V101.77h-.04.01H85.84h.06H84.96 85h-.22.02l-.01.01h-.02l-.01.01h-.01l-.01.01h-.05l-.01.01v-2.84c1.48-.08 2.57-.2 3.27-.37.38-.08.7-.14.96-.18.26-.04.54-.08.83-.12.12 0 .23-.04.35-.12l.01-.01h.02l.01-.01h.02l.01-.01h.04l.01-.01h.03v-.01H90.3l.01-.01H90.37l.01-.01H90.49l.01-.01H91.19l-.22-.1h.01l.01.01H91l.01.01h.02l.01.01.01.01h.01l.01.01.01.01V123.89H93v2.72h-6.33l-.09-1.75-.07.06-.08.06-.08.06-.08.06-.08.06-.08.06-.08.06-.08.06-.08.05-.07.06-.07.05-.07.05-.07.05-.07.05-.08.05-.08.05-.08.05-.07.05-.07.04-.08.05-.06.04-.08.05-.08.04-.08.04-.08.04-.08.04-.08.04-.08.04-.08.04-.08.03-.08.03-.08.03-.08.03-.08.03-.08.03-.08.03-.08.03-.08.03-.08.02-.08.02-.08.02-.08.02-.08.02-.08.02-.08.02-.08.02-.08.01-.08.01-.08.02-.08.01-.08.01-.08.01-.08.01-.08.01-.08.01-.08.01-.08.01h-.08l-.08.01h-.4c-1.98-.04-3.24-.93-3.8-2.66-.55-1.74-.83-3.71-.83-5.93V101.8c-.26 0-.6-.02-1-.06H75.47h.2zm-11.84-18 .14-.01.14-.01.14-.01.14-.01.14-.01.13-.01.13-.01.13-.01.13-.01.12-.01.12-.01.12-.01.12-.01.12-.01.12-.01.12-.01.11-.01.11-.01.11-.01.11-.01.11-.01.11-.01.1-.01.1-.01.1-.01.1-.01.1-.01.09-.01.1-.01.09-.01.09-.01.09-.01.09-.01.09-.01.08-.01.08-.01.08-.01.07-.02.08-.01.08-.01.07-.01.07-.01.07-.01.07-.01.07-.01.07-.01.06-.01.06-.01.06-.01.06-.01.06-.01.05-.01.06-.01v40.37h2.36v3.21H62v-3.21h2.44V86.37H63.97 64 62.16v-2.54l.16-.01.16-.01.15-.01.16-.01.15-.01.15-.01.15-.01.15-.01.15-.01.14-.01.15-.01zm-37.69 3.49c2 1.52 3.64 3.22 4.88 5.08 1.24 1.86 2.15 3.83 2.73 5.88.57 2.06.86 4.14.84 6.24.01 2.1-.28 4.18-.84 6.24-.58 2.05-1.48 4.02-2.73 5.88-1.25 1.87-2.88 3.56-4.88 5.08v-34.4zm-5.81 44.41c2.11-.85 4.15-1.91 6.11-3.17 1.97-1.26 3.8-2.72 5.48-4.37 1.69-1.66 3.17-3.49 4.43-5.51 1.27-2.01 2.26-4.21 2.97-6.57.7-2.37 1.07-4.89 1.08-7.59 0-2.78-.45-5.52-1.36-8.2-.89-2.69-2.2-5.23-3.93-7.64-1.72-2.4-3.82-4.57-6.3-6.51-2.49-1.94-5.31-3.55-8.49-4.84v54.4zm34.95-14.39h3.27c-.03 3.47-.72 6.01-2.07 7.63-1.35 1.61-3 2.42-4.96 2.42-2.27-.08-4.09-1.25-5.46-3.51l-.06-.11-.06-.11-.06-.11-.06-.11-.06-.11-.06-.11-.06-.11-.05-.12-.06-.12-.06-.12-.05-.12-.05-.12-.05-.12-.05-.12-.05-.12-.05-.12-.05-.13-.05-.13-.05-.13-.05-.13-.05-.13-.04-.13-.04-.14-.04-.14-.04-.14-.04-.14-.04-.14-.04-.14-.04-.15-.04-.14-.04-.15-.03-.15-.03-.15-.03-.15-.03-.15-.03-.16-.03-.15-.03-.15-.03-.16-.02-.16-.03-.16-.02-.16-.02-.16-.03-.16-.02-.17-.02-.17-.02-.17-.02-.17-.02-.17-.02-.17-.02-.17-.02-.18-.02-.18-.01-.18-.01-.18-.01-.18-.01-.18-.01-.18-.01-.18-.01-.18-.01-.19-.01-.19v-.19l-.01-.19c-.12-5.81.62-10.05 2.21-12.71 1.58-2.66 3.38-3.99 5.39-3.99 1.37 0 2.63.62 3.8 1.85l.05.06.05.06.05.06.05.06.05.06.05.06.05.06.05.06.05.07.05.07.05.07.05.07.05.07.05.07.05.07.05.07.05.07.05.07.05.07.05.07.05.08.05.07.05.08.05.08.05.08.04.08.05.08.04.08.04.08.04.08.04.08.04.09.04.09.04.09.04.09.04.09.04.09.04.09.04.09.04.09.04.09.04.09.04.1.04.1.03.1.04.1.03.1.04.1.04.1.03.1.03.1.04.1.03.1.03.1.03.1.03.11.03.11.03.11.03.11.03.11.03.11.03.11.03.11.03.11c.61 2.42.81 5.31.61 8.66h-9.73c-.2 6.86.84 10.31 3.14 10.35.9 0 1.68-.54 2.34-1.63.65-1.1.98-2.78.98-5.04z" style="fill:url(#SVGID_2_)"/><path class="st3" d="M161.76 77.21c12.01-12.49 29.92-12.64 29.92-12.64-22.35-2.09-29.92 6.89-29.92 6.89-6.12-9.34-19.95-7.19-19.95-7.19 15.37 2.76 19.95 12.94 19.95 12.94zM189.78 86.86c-.04-.59-.14-1.27-.31-2.04-.16-.77-.45-1.56-.85-2.35-.4-.81-.97-1.55-1.69-2.23-.73-.68-1.66-1.25-2.8-1.67-1.15-.42-2.54-.64-4.19-.65-1.15-.01-2.26.14-3.36.47-1.1.32-2.09.88-2.98 1.64-.89.77-1.6 1.81-2.13 3.14-.53 1.32-.81 2.97-.82 4.96v25.76h-8.38l3.4 5.18h4.98v10.51h5.81v-10.51H184v10.51h5.81V88.15c.02-.27 0-.7-.03-1.29zM184 113.91h-7.55V87.86c.01-.99.16-1.8.45-2.39.29-.59.64-1.03 1.07-1.32.41-.29.83-.48 1.25-.56.41-.1.75-.13 1-.12.25-.01.59.02 1.01.12.41.08.83.28 1.24.56.43.29.78.73 1.07 1.32.29.59.44 1.39.45 2.39v26.05zM163.65 93.1c-.72-2.05-1.7-3.92-2.96-5.61-1.25-1.7-2.68-3.22-4.3-4.56a30.45 30.45 0 0 0-5.13-3.44c-1.8-.96-3.62-1.71-5.45-2.28v52.39h5.81v-9.29c2.78-1.43 5.14-3.19 7.09-5.29 1.95-2.1 3.45-4.44 4.48-7.03 1.03-2.59 1.55-5.35 1.56-8.26-.01-2.37-.37-4.58-1.1-6.63zm-5.55 12.51c-.55 1.7-1.38 3.26-2.46 4.68-1.1 1.43-2.43 2.65-4.01 3.69V86.06c1.56 1.11 2.89 2.4 3.98 3.87a16.8 16.8 0 0 1 2.49 4.81c.57 1.74.86 3.56.86 5.49-.02 1.89-.3 3.68-.86 5.38zM134.26 79.22c-1.07 1.52-2 3.14-2.82 4.88-.82 1.74-1.46 3.53-1.94 5.38-.47 1.83-.72 3.67-.76 5.5-.01 1.43.08 2.74.29 3.91.2 1.19.49 2.29.85 3.34.36 1.04.79 2.07 1.27 3.09.47 1.02.98 2.09 1.51 3.19.44.91.84 1.83 1.23 2.76.39.92.7 1.86.95 2.81.24.95.37 1.9.38 2.86 0 1.21-.17 2.54-.52 3.98-.35 1.45-.89 2.92-1.63 4.41-.73 1.49-1.67 2.91-2.83 4.27h7.55c.52-1.09 1.02-2.33 1.51-3.7s.91-2.76 1.23-4.2c.33-1.44.49-2.82.5-4.13-.01-1.49-.16-2.87-.47-4.16-.3-1.28-.68-2.47-1.13-3.57-.47-1.1-.93-2.12-1.42-3.06-.59-1.16-1.13-2.33-1.63-3.49-.5-1.15-.93-2.37-1.26-3.62-.33-1.27-.51-2.64-.58-4.12-.04-2 .21-3.99.79-5.96.56-1.97 1.4-3.84 2.49-5.61 1.11-1.77 2.42-3.36 3.96-4.76h-7.52z"/><linearGradient id="SVGID_3_" gradientUnits="userSpaceOnUse" x1="21.099" y1="140.316" x2="114.514" y2="140.316"><stop offset="0" style="stop-color:#ddb964"/><stop offset=".508" style="stop-color:#fff"/><stop offset="1" style="stop-color:#ddb964"/></linearGradient><path d="M21.1 142.96v-7.31h2.46c.56 0 .98.03 1.27.11.41.1.76.27 1.05.52.38.33.66.74.85 1.25.19.51.28 1.09.28 1.74 0 .55-.06 1.05-.19 1.48-.13.43-.29.78-.49 1.06s-.42.5-.65.66c-.24.16-.52.28-.85.37-.33.08-.72.12-1.15.12H21.1zm.94-.86h1.53c.47 0 .84-.04 1.11-.13.27-.09.48-.22.64-.38.22-.23.4-.54.52-.92.12-.39.19-.86.19-1.41 0-.76-.12-1.35-.37-1.76-.25-.41-.54-.68-.9-.82-.25-.1-.66-.15-1.22-.15h-1.5v5.57zm9.7-.85.91.11c-.14.54-.41.96-.79 1.26-.39.3-.88.45-1.48.45-.76 0-1.36-.24-1.8-.72-.44-.48-.67-1.15-.67-2.01 0-.89.22-1.58.67-2.07.45-.49 1.03-.74 1.75-.74.69 0 1.26.24 1.7.72.44.48.66 1.16.66 2.03 0 .05 0 .13-.01.24h-3.86c.03.58.19 1.03.48 1.34.29.31.65.46 1.08.46.32 0 .6-.09.82-.26.23-.15.41-.43.54-.81zm-2.88-1.45h2.89c-.04-.45-.15-.78-.33-1-.28-.35-.64-.52-1.09-.52-.4 0-.74.14-1.02.41-.27.28-.42.65-.45 1.11zm4.89 3.16v-5.3h.79v.74c.16-.26.38-.47.65-.63.27-.16.58-.24.92-.24.38 0 .7.08.94.24.24.16.42.39.52.68.41-.62.94-.93 1.6-.93.51 0 .91.15 1.18.44.28.29.41.74.41 1.34v3.64h-.86v-3.34c0-.36-.03-.62-.09-.78a.765.765 0 0 0-.31-.38.935.935 0 0 0-.53-.14c-.36 0-.67.12-.91.37s-.36.64-.36 1.19v3.08h-.88v-3.44c0-.4-.07-.7-.21-.9-.14-.2-.38-.3-.7-.3-.25 0-.48.07-.69.2-.21.13-.36.33-.46.58-.09.26-.14.63-.14 1.11v2.75h-.87zm8.33-6.28v-1.03h.88v1.03h-.88zm0 6.28v-5.3h.88v5.3h-.88zm5.57 0v-.67c-.33.52-.81.79-1.45.79-.41 0-.79-.12-1.14-.35s-.61-.56-.8-.98c-.19-.42-.28-.9-.28-1.44 0-.53.09-1.01.26-1.44a2.026 2.026 0 0 1 1.94-1.33 1.673 1.673 0 0 1 1.42.73v-2.62h.87v7.31h-.82zm-2.77-2.64c0 .68.14 1.18.42 1.52.28.34.61.5.99.5s.71-.16.98-.48c.27-.32.4-.81.4-1.47 0-.73-.14-1.26-.41-1.6-.27-.34-.61-.51-1.01-.51-.39 0-.72.16-.98.49-.26.33-.39.84-.39 1.55zm4.64-.01c0-.98.27-1.71.8-2.18.45-.39.99-.59 1.63-.59.71 0 1.29.24 1.75.72.45.48.68 1.14.68 1.98 0 .68-.1 1.22-.3 1.61-.2.39-.49.69-.87.91-.38.22-.8.33-1.25.33-.73 0-1.31-.24-1.76-.71-.46-.49-.68-1.18-.68-2.07zm.9 0c0 .68.14 1.19.43 1.52.29.34.65.51 1.09.51.43 0 .8-.17 1.09-.51.29-.34.43-.86.43-1.55 0-.66-.15-1.15-.44-1.49-.29-.34-.65-.51-1.08-.51-.44 0-.8.17-1.09.5-.28.35-.43.85-.43 1.53zm6.42 2.65-1.97-5.3h.93l1.11 3.17c.12.34.23.7.33 1.07.08-.28.19-.61.33-1.01l1.15-3.23h.9l-1.96 5.3h-.82zm6.4 0v-7.31h.95v6.45h3.52v.86h-4.47zm8.87 0v-.78c-.4.6-.95.9-1.64.9-.31 0-.59-.06-.86-.18s-.46-.27-.59-.45c-.13-.18-.22-.4-.27-.67-.04-.17-.05-.46-.05-.84v-3.28h.88v2.94c0 .47.02.78.05.95.05.24.17.42.35.56.18.13.4.2.66.2s.51-.07.74-.21c.23-.14.39-.33.49-.56.1-.24.14-.58.14-1.04v-2.84h.88v5.3h-.78zm1.58 0 1.89-2.75-1.75-2.54h1.1l.79 1.24c.15.24.27.43.36.59.14-.22.27-.41.39-.58l.87-1.25h1.05l-1.79 2.49 1.93 2.8h-1.08l-1.06-1.65-.28-.44-1.36 2.09h-1.06zm8.97 0v-.78c-.4.6-.95.9-1.64.9-.31 0-.59-.06-.86-.18s-.46-.27-.59-.45c-.13-.18-.22-.4-.27-.67-.04-.17-.05-.46-.05-.84v-3.28h.88v2.94c0 .47.02.78.05.95.05.24.17.42.35.56.18.13.4.2.66.2s.51-.07.74-.21c.23-.14.39-.33.49-.56.1-.24.14-.58.14-1.04v-2.84h.88v5.3h-.78zm2.15 0v-5.3h.79v.8c.2-.38.39-.62.56-.74.17-.12.36-.18.56-.18.3 0 .6.1.9.29l-.3.83c-.21-.13-.43-.19-.64-.19-.19 0-.36.06-.52.18-.15.12-.26.28-.33.49-.1.32-.15.67-.15 1.05v2.77h-.87zm3.3 2.04-.1-.84c.19.05.36.08.5.08.2 0 .35-.03.47-.1s.21-.16.29-.28c.05-.09.14-.31.27-.67.02-.05.04-.12.08-.22l-1.96-5.31h.95l1.08 3.07c.14.39.27.8.38 1.23.1-.41.22-.81.36-1.21l1.11-3.09h.88l-1.97 5.38c-.21.58-.38.98-.49 1.2-.16.3-.34.51-.54.65s-.44.21-.72.21c-.19.01-.38-.03-.59-.1zm7.6-4.39.89-.08c.04.37.14.67.3.9.15.23.39.42.72.57.33.14.69.22 1.1.22.36 0 .68-.05.96-.16.28-.11.48-.26.62-.45s.2-.4.2-.63c0-.23-.07-.43-.2-.6-.13-.17-.34-.31-.64-.43-.19-.08-.62-.2-1.27-.36-.66-.16-1.12-.31-1.38-.46-.34-.18-.6-.41-.76-.68a1.66 1.66 0 0 1-.25-.91c0-.37.1-.71.31-1.03.21-.32.5-.56.9-.73.39-.17.83-.25 1.31-.25.53 0 1 .09 1.4.26.4.17.72.43.93.77.22.34.34.72.35 1.15l-.91.07c-.05-.46-.21-.81-.49-1.05s-.7-.35-1.25-.35c-.57 0-.99.11-1.25.32-.26.21-.39.47-.39.78 0 .26.09.48.28.65.18.17.66.34 1.43.52.77.18 1.3.33 1.58.47.42.2.72.44.92.75.2.3.3.65.3 1.04s-.11.76-.33 1.1c-.22.34-.53.61-.94.8-.41.19-.87.29-1.38.29-.65 0-1.19-.1-1.63-.29-.44-.19-.78-.48-1.03-.87-.26-.4-.39-.84-.4-1.33zm6.98 2.35v-7.31h2.7c.47 0 .84.02 1.09.07.35.06.65.17.88.34.24.17.43.4.57.71.14.3.22.64.22 1 0 .62-.19 1.15-.58 1.58-.39.43-1.09.65-2.1.65h-1.83v2.97h-.95zm.94-3.84h1.85c.61 0 1.05-.12 1.3-.35.26-.23.39-.56.39-.98 0-.3-.08-.57-.23-.78-.15-.22-.35-.36-.6-.43-.16-.04-.45-.07-.88-.07h-1.83v2.61zm4.19 3.84 2.75-7.31h1.02l2.93 7.31h-1.08l-.84-2.21h-2.99l-.79 2.21h-1zm2.07-3h2.42l-.75-2.02c-.23-.62-.4-1.12-.51-1.52-.09.47-.22.93-.39 1.4l-.77 2.14z" style="fill:url(#SVGID_3_)"/><path class="st3" d="m103.3 104.66-1.49-3.65h1.96v-2.72h-8.1c2.5 2.35 5.1 4.44 7.63 6.37zM107.63 107.9l3.31-6.88h1.83V98.3h-7.29v2.72h1.92l-2.05 5.19c.78.57 1.54 1.14 2.28 1.69z"/></svg>