<?xml version="1.0" standalone="no"?>
<!DOCTYPE svg PUBLIC "-//W3C//DTD SVG 20010904//EN"
 "http://www.w3.org/TR/2001/REC-SVG-20010904/DTD/svg10.dtd">
<svg version="1.0" xmlns="http://www.w3.org/2000/svg"
 width="700.000000pt" height="700.000000pt" viewBox="0 0 700.000000 700.000000"
 preserveAspectRatio="xMidYMid meet">
<metadata>
Created by potrace 1.14, written by Peter Selinger 2001-2017
</metadata>
<g transform="translate(0.000000,700.000000) scale(0.100000,-0.100000)"
fill="#000000" stroke="none">
<path d="M3239 6996 c-2 -2 -40 -7 -83 -10 -43 -4 -88 -8 -100 -11 -12 -2 -39
-6 -61 -9 -22 -3 -49 -7 -60 -10 -11 -2 -40 -7 -65 -11 -25 -4 -108 -22 -185
-40 -632 -151 -1201 -469 -1660 -930 -157 -158 -200 -207 -332 -383 -179 -238
-361 -569 -458 -827 -20 -55 -41 -109 -45 -120 -48 -112 -147 -530 -164 -695
-3 -30 -9 -84 -13 -120 -10 -84 -10 -574 0 -665 22 -192 39 -290 83 -475 31
-131 81 -303 103 -355 5 -11 25 -65 46 -120 72 -191 220 -477 338 -650 49 -73
164 -230 193 -265 413 -492 868 -826 1429 -1050 164 -66 414 -144 529 -166 22
-4 35 -6 121 -24 62 -12 95 -17 154 -26 25 -3 57 -8 71 -10 165 -26 681 -25
846 1 16 3 43 7 59 10 17 2 48 7 70 11 22 3 74 12 115 20 41 8 86 17 100 20
106 20 422 120 545 171 151 63 383 177 443 218 20 14 40 25 45 25 4 0 13 5 20
10 7 6 62 43 122 83 629 412 1121 1054 1372 1792 39 115 110 375 117 430 2 11
6 36 10 55 11 64 16 95 22 135 3 22 7 51 10 65 26 163 26 699 -1 850 -2 14 -6
45 -9 70 -3 25 -11 72 -16 105 -6 33 -14 74 -16 90 -6 34 -45 190 -69 280 -21
80 -94 290 -111 323 -8 15 -14 33 -14 40 0 7 -4 20 -9 30 -6 9 -39 79 -74 154
-134 283 -322 569 -527 803 -65 74 -265 271 -330 326 -35 30 -71 60 -80 68
-32 30 -238 181 -320 233 -114 73 -295 174 -405 225 -169 78 -257 113 -407
162 -175 56 -376 107 -503 125 -23 4 -50 8 -60 10 -11 2 -48 7 -82 11 -35 4
-75 9 -90 12 -32 6 -608 14 -614 9z"/>
</g>
</svg>
